# xmcd
#
# Track frame offsets:
#	150
#	17133
#	32760
#	50634
#	64046
#	79858
#
# Disc length: 1326 seconds
#
# Revision: 0
# Processed by: cddbd v1.5.2PL0 Copyright (c) Steve Scherf et al.
# Submitted via: dBpowerAMP V4.0
#
DISCID=48052c06
DTITLE=Vince Anthony - Swamp Pop
DYEAR=1900
DGENRE=Country
TTITLE0=Lonely Little Cajun Boy
TTITLE1=Sneaking Around
TTITLE2=My Little Princess
TTITLE3=Got The Feeling
TTITLE4=Carnival Man
TTITLE5=I'm Holding You Tonight
EXTD=
EXTT0=
EXTT1=
EXTT2=
EXTT3=
EXTT4=
EXTT5=
PLAYORDER=
